<mxfile host="app.diagrams.net" modified="2020-12-03T03:01:46.625Z" agent="5.0 (Macintosh; Intel Mac OS X 10_15_7) AppleWebKit/537.36 (KHTML, like Gecko) Chrome/86.0.4240.111 Safari/537.36" etag="0j8wPGNDPY4uJnlz3mL_" version="13.8.5" type="github">
  <diagram id="UotCp4xaO-_KccC0vSp1" name="Page-1">
    <mxGraphModel dx="2314" dy="1106" grid="1" gridSize="10" guides="1" tooltips="1" connect="1" arrows="1" fold="1" page="1" pageScale="1" pageWidth="827" pageHeight="1169" math="0" shadow="0">
      <root>
        <mxCell id="0" />
        <mxCell id="1" parent="0" />
        <mxCell id="kTf5K5V3wtwHn-U12bBU-1" value="" style="rounded=0;html=1;jettySize=auto;orthogonalLoop=1;fontSize=11;endArrow=block;endFill=0;endSize=8;strokeWidth=1;shadow=0;labelBackgroundColor=none;edgeStyle=orthogonalEdgeStyle;strokeColor=#000000;" edge="1" parent="1" source="kTf5K5V3wtwHn-U12bBU-2" target="kTf5K5V3wtwHn-U12bBU-5">
          <mxGeometry relative="1" as="geometry" />
        </mxCell>
        <mxCell id="kTf5K5V3wtwHn-U12bBU-2" value="&lt;p style=&quot;background-color: #2b2b2b ; color: #a9b7c6 ; font-family: &amp;#34;menlo&amp;#34; ; font-size: 11.3pt&quot;&gt;AudioEffectChain初始化&lt;/p&gt;" style="rounded=1;whiteSpace=wrap;html=1;fontSize=12;glass=0;strokeWidth=1;shadow=0;strokeColor=#000000;" vertex="1" parent="1">
          <mxGeometry x="160" y="80" width="210" height="30" as="geometry" />
        </mxCell>
        <mxCell id="kTf5K5V3wtwHn-U12bBU-3" value="Yes" style="rounded=0;html=1;jettySize=auto;orthogonalLoop=1;fontSize=11;endArrow=block;endFill=0;endSize=8;strokeWidth=1;shadow=0;labelBackgroundColor=none;edgeStyle=orthogonalEdgeStyle;strokeColor=#000000;" edge="1" parent="1" source="kTf5K5V3wtwHn-U12bBU-5" target="kTf5K5V3wtwHn-U12bBU-9">
          <mxGeometry y="20" relative="1" as="geometry">
            <mxPoint as="offset" />
          </mxGeometry>
        </mxCell>
        <mxCell id="kTf5K5V3wtwHn-U12bBU-4" value="No" style="edgeStyle=orthogonalEdgeStyle;rounded=0;html=1;jettySize=auto;orthogonalLoop=1;fontSize=11;endArrow=block;endFill=0;endSize=8;strokeWidth=1;shadow=0;labelBackgroundColor=none;strokeColor=#000000;" edge="1" parent="1" source="kTf5K5V3wtwHn-U12bBU-5" target="kTf5K5V3wtwHn-U12bBU-6">
          <mxGeometry y="10" relative="1" as="geometry">
            <mxPoint as="offset" />
          </mxGeometry>
        </mxCell>
        <mxCell id="kTf5K5V3wtwHn-U12bBU-5" value="&lt;pre style=&quot;background-color: #2b2b2b ; color: #a9b7c6 ; font-family: &amp;#34;menlo&amp;#34; ; font-size: 11.3pt&quot;&gt;&lt;br&gt;&lt;/pre&gt;" style="rhombus;whiteSpace=wrap;html=1;shadow=0;fontFamily=Helvetica;fontSize=12;align=center;strokeWidth=1;spacing=6;spacingTop=-4;strokeColor=#000000;" vertex="1" parent="1">
          <mxGeometry x="170" y="170" width="100" height="80" as="geometry" />
        </mxCell>
        <mxCell id="kTf5K5V3wtwHn-U12bBU-6" value="Plug in lamp" style="rounded=1;whiteSpace=wrap;html=1;fontSize=12;glass=0;strokeWidth=1;shadow=0;strokeColor=#000000;" vertex="1" parent="1">
          <mxGeometry x="320" y="190" width="120" height="40" as="geometry" />
        </mxCell>
        <mxCell id="kTf5K5V3wtwHn-U12bBU-7" value="No" style="rounded=0;html=1;jettySize=auto;orthogonalLoop=1;fontSize=11;endArrow=block;endFill=0;endSize=8;strokeWidth=1;shadow=0;labelBackgroundColor=none;edgeStyle=orthogonalEdgeStyle;strokeColor=#000000;" edge="1" parent="1" source="kTf5K5V3wtwHn-U12bBU-9" target="kTf5K5V3wtwHn-U12bBU-10">
          <mxGeometry x="0.3333" y="20" relative="1" as="geometry">
            <mxPoint as="offset" />
          </mxGeometry>
        </mxCell>
        <mxCell id="kTf5K5V3wtwHn-U12bBU-8" value="Yes" style="edgeStyle=orthogonalEdgeStyle;rounded=0;html=1;jettySize=auto;orthogonalLoop=1;fontSize=11;endArrow=block;endFill=0;endSize=8;strokeWidth=1;shadow=0;labelBackgroundColor=none;strokeColor=#000000;" edge="1" parent="1" source="kTf5K5V3wtwHn-U12bBU-9" target="kTf5K5V3wtwHn-U12bBU-11">
          <mxGeometry y="10" relative="1" as="geometry">
            <mxPoint as="offset" />
          </mxGeometry>
        </mxCell>
        <mxCell id="kTf5K5V3wtwHn-U12bBU-9" value="Bulb&lt;br&gt;burned out?" style="rhombus;whiteSpace=wrap;html=1;shadow=0;fontFamily=Helvetica;fontSize=12;align=center;strokeWidth=1;spacing=6;spacingTop=-4;strokeColor=#000000;" vertex="1" parent="1">
          <mxGeometry x="170" y="290" width="100" height="80" as="geometry" />
        </mxCell>
        <mxCell id="kTf5K5V3wtwHn-U12bBU-10" value="Repair Lamp" style="rounded=1;whiteSpace=wrap;html=1;fontSize=12;glass=0;strokeWidth=1;shadow=0;strokeColor=#000000;" vertex="1" parent="1">
          <mxGeometry x="160" y="430" width="120" height="40" as="geometry" />
        </mxCell>
        <mxCell id="kTf5K5V3wtwHn-U12bBU-11" value="Replace Bulb" style="rounded=1;whiteSpace=wrap;html=1;fontSize=12;glass=0;strokeWidth=1;shadow=0;strokeColor=#000000;" vertex="1" parent="1">
          <mxGeometry x="320" y="310" width="120" height="40" as="geometry" />
        </mxCell>
        <mxCell id="kTf5K5V3wtwHn-U12bBU-12" value="" style="edgeStyle=orthogonalEdgeStyle;rounded=0;orthogonalLoop=1;jettySize=auto;html=1;strokeColor=#000000;" edge="1" parent="1" source="kTf5K5V3wtwHn-U12bBU-13" target="kTf5K5V3wtwHn-U12bBU-15">
          <mxGeometry relative="1" as="geometry" />
        </mxCell>
        <mxCell id="kTf5K5V3wtwHn-U12bBU-13" value="&lt;p style=&quot;background-color: #2b2b2b ; color: #a9b7c6 ; font-family: &amp;#34;menlo&amp;#34; ; font-size: 11.3pt&quot;&gt;AudioEffectChain初始化&lt;/p&gt;" style="rounded=1;whiteSpace=wrap;html=1;fontSize=12;glass=0;strokeWidth=1;shadow=0;strokeColor=#000000;" vertex="1" parent="1">
          <mxGeometry x="160" y="530" width="210" height="30" as="geometry" />
        </mxCell>
        <mxCell id="kTf5K5V3wtwHn-U12bBU-14" value="" style="edgeStyle=orthogonalEdgeStyle;rounded=0;orthogonalLoop=1;jettySize=auto;html=1;strokeColor=#000000;" edge="1" parent="1" source="kTf5K5V3wtwHn-U12bBU-17">
          <mxGeometry relative="1" as="geometry">
            <mxPoint x="265" y="797.5" as="targetPoint" />
          </mxGeometry>
        </mxCell>
        <mxCell id="kTf5K5V3wtwHn-U12bBU-15" value="&lt;pre style=&quot;background-color: rgb(43 , 43 , 43) ; color: rgb(169 , 183 , 198) ; font-family: &amp;#34;menlo&amp;#34; ; font-size: 11.3pt&quot;&gt;&lt;span style=&quot;color: rgb(181 , 182 , 227)&quot;&gt;audiobase&lt;/span&gt;::&lt;span style=&quot;color: rgb(181 , 182 , 227)&quot;&gt;AudioWebrtc【init（采样率、声道数）、打开（主功能、AGC、&lt;/span&gt;FakeStereo）、关闭（NS、HPF））】&lt;/pre&gt;" style="whiteSpace=wrap;html=1;rounded=1;shadow=0;strokeWidth=1;glass=0;strokeColor=#000000;" vertex="1" parent="1">
          <mxGeometry x="153.75" y="650" width="222.5" height="65" as="geometry" />
        </mxCell>
        <mxCell id="kTf5K5V3wtwHn-U12bBU-16" value="" style="edgeStyle=orthogonalEdgeStyle;rounded=0;orthogonalLoop=1;jettySize=auto;html=1;strokeColor=#000000;" edge="1" parent="1" source="kTf5K5V3wtwHn-U12bBU-17" target="kTf5K5V3wtwHn-U12bBU-20">
          <mxGeometry relative="1" as="geometry" />
        </mxCell>
        <mxCell id="kTf5K5V3wtwHn-U12bBU-17" value="&lt;pre style=&quot;background-color: #2b2b2b ; color: #a9b7c6 ; font-family: &amp;#34;menlo&amp;#34; ; font-size: 11.3pt&quot;&gt;&lt;span style=&quot;color: #b5b6e3&quot;&gt;audiobase&lt;/span&gt;::&lt;span style=&quot;color: #b5b6e3&quot;&gt;AudioCompressor init（采样率、声道数）&lt;/span&gt;&lt;/pre&gt;" style="rhombus;whiteSpace=wrap;html=1;strokeColor=#000000;" vertex="1" parent="1">
          <mxGeometry x="225" y="770" width="80" height="80" as="geometry" />
        </mxCell>
        <mxCell id="kTf5K5V3wtwHn-U12bBU-18" value="" style="edgeStyle=orthogonalEdgeStyle;rounded=0;orthogonalLoop=1;jettySize=auto;html=1;strokeColor=#000000;" edge="1" parent="1" source="kTf5K5V3wtwHn-U12bBU-15" target="kTf5K5V3wtwHn-U12bBU-17">
          <mxGeometry relative="1" as="geometry">
            <mxPoint x="265.0999999999999" y="715" as="sourcePoint" />
            <mxPoint x="265" y="797.5" as="targetPoint" />
          </mxGeometry>
        </mxCell>
        <mxCell id="kTf5K5V3wtwHn-U12bBU-19" value="" style="edgeStyle=orthogonalEdgeStyle;rounded=0;orthogonalLoop=1;jettySize=auto;html=1;strokeColor=#000000;" edge="1" parent="1" source="kTf5K5V3wtwHn-U12bBU-20" target="kTf5K5V3wtwHn-U12bBU-22">
          <mxGeometry relative="1" as="geometry" />
        </mxCell>
        <mxCell id="kTf5K5V3wtwHn-U12bBU-20" value="&lt;p style=&quot;background-color: #2b2b2b ; color: #a9b7c6 ; font-family: &amp;#34;menlo&amp;#34; ; font-size: 11.3pt&quot;&gt;&lt;span style=&quot;color: #b5b6e3&quot;&gt;audiobase&lt;/span&gt;::&lt;span style=&quot;color: #b5b6e3&quot;&gt;AudioPreprocessor&lt;br&gt;&lt;/span&gt;&lt;span style=&quot;color: #b5b6e3&quot;&gt; init预处理&lt;/span&gt;&lt;/p&gt;" style="rhombus;whiteSpace=wrap;html=1;strokeColor=#000000;" vertex="1" parent="1">
          <mxGeometry x="225" y="890" width="80" height="80" as="geometry" />
        </mxCell>
        <mxCell id="kTf5K5V3wtwHn-U12bBU-21" value="" style="edgeStyle=orthogonalEdgeStyle;rounded=0;orthogonalLoop=1;jettySize=auto;html=1;strokeColor=#000000;" edge="1" parent="1" source="kTf5K5V3wtwHn-U12bBU-22" target="kTf5K5V3wtwHn-U12bBU-24">
          <mxGeometry relative="1" as="geometry" />
        </mxCell>
        <mxCell id="kTf5K5V3wtwHn-U12bBU-22" value="&lt;p style=&quot;background-color: #2b2b2b ; color: #a9b7c6 ; font-family: &amp;#34;menlo&amp;#34; ; font-size: 11.3pt&quot;&gt;&lt;span style=&quot;color: rgb(181 , 182 , 227)&quot;&gt;audiobase&lt;/span&gt;::&lt;span style=&quot;color: rgb(181 , 182 , 227)&quot;&gt;AudioCompressor智能音效压缩初始化&lt;/span&gt;&lt;/p&gt;" style="rhombus;whiteSpace=wrap;html=1;strokeColor=#000000;" vertex="1" parent="1">
          <mxGeometry x="225" y="1040" width="80" height="80" as="geometry" />
        </mxCell>
        <mxCell id="kTf5K5V3wtwHn-U12bBU-23" value="" style="edgeStyle=orthogonalEdgeStyle;rounded=0;orthogonalLoop=1;jettySize=auto;html=1;strokeColor=#000000;" edge="1" parent="1" source="kTf5K5V3wtwHn-U12bBU-24" target="kTf5K5V3wtwHn-U12bBU-26">
          <mxGeometry relative="1" as="geometry" />
        </mxCell>
        <mxCell id="kTf5K5V3wtwHn-U12bBU-24" value="&lt;pre style=&quot;background-color: #2b2b2b ; color: #a9b7c6 ; font-family: &amp;#34;menlo&amp;#34; ; font-size: 11.3pt&quot;&gt;&lt;span style=&quot;color: #b5b6e3&quot;&gt;audiobase&lt;/span&gt;::&lt;span style=&quot;color: #b5b6e3&quot;&gt;AudioEqualizer人声均衡器初始化&lt;/span&gt;&lt;/pre&gt;" style="rhombus;whiteSpace=wrap;html=1;strokeColor=#000000;" vertex="1" parent="1">
          <mxGeometry x="225" y="1200" width="80" height="80" as="geometry" />
        </mxCell>
        <mxCell id="kTf5K5V3wtwHn-U12bBU-25" value="" style="edgeStyle=orthogonalEdgeStyle;rounded=0;orthogonalLoop=1;jettySize=auto;html=1;strokeColor=#000000;" edge="1" parent="1" source="kTf5K5V3wtwHn-U12bBU-26" target="kTf5K5V3wtwHn-U12bBU-28">
          <mxGeometry relative="1" as="geometry" />
        </mxCell>
        <mxCell id="kTf5K5V3wtwHn-U12bBU-26" value="&lt;pre style=&quot;background-color: rgb(43 , 43 , 43) ; color: rgb(169 , 183 , 198) ; font-family: &amp;#34;menlo&amp;#34; ; font-size: 11.3pt&quot;&gt;&lt;span style=&quot;color: rgb(181 , 182 , 227)&quot;&gt;audiobase&lt;/span&gt;::&lt;span style=&quot;color: rgb(181 , 182 , 227)&quot;&gt;AudioEqualizer伴奏均衡器初始化&lt;/span&gt;&lt;/pre&gt;" style="rhombus;whiteSpace=wrap;html=1;strokeColor=#000000;" vertex="1" parent="1">
          <mxGeometry x="225" y="1360" width="80" height="80" as="geometry" />
        </mxCell>
        <mxCell id="kTf5K5V3wtwHn-U12bBU-27" value="" style="edgeStyle=orthogonalEdgeStyle;rounded=0;orthogonalLoop=1;jettySize=auto;html=1;strokeColor=#000000;" edge="1" parent="1" source="kTf5K5V3wtwHn-U12bBU-28" target="kTf5K5V3wtwHn-U12bBU-30">
          <mxGeometry relative="1" as="geometry" />
        </mxCell>
        <mxCell id="kTf5K5V3wtwHn-U12bBU-28" value="&lt;pre style=&quot;background-color: rgb(43 , 43 , 43) ; font-family: &amp;#34;menlo&amp;#34; ; font-size: 11.3pt&quot;&gt;&lt;pre style=&quot;color: rgb(169 , 183 , 198) ; font-family: &amp;#34;menlo&amp;#34; ; font-size: 11.3pt&quot;&gt;&lt;span style=&quot;color: #b5b6e3&quot;&gt;audiobase&lt;/span&gt;::&lt;span style=&quot;color: #b5b6e3&quot;&gt;KalaVoiceShift升降调处理器初始化&lt;/span&gt;&lt;/pre&gt;&lt;/pre&gt;" style="rhombus;whiteSpace=wrap;html=1;strokeColor=#000000;" vertex="1" parent="1">
          <mxGeometry x="225" y="1520" width="80" height="80" as="geometry" />
        </mxCell>
        <mxCell id="kTf5K5V3wtwHn-U12bBU-29" value="" style="edgeStyle=orthogonalEdgeStyle;rounded=0;orthogonalLoop=1;jettySize=auto;html=1;strokeColor=#000000;" edge="1" parent="1" source="kTf5K5V3wtwHn-U12bBU-30" target="kTf5K5V3wtwHn-U12bBU-32">
          <mxGeometry relative="1" as="geometry" />
        </mxCell>
        <mxCell id="kTf5K5V3wtwHn-U12bBU-30" value="&lt;pre style=&quot;background-color: rgb(43 , 43 , 43) ; font-family: &amp;#34;menlo&amp;#34; ; font-size: 11.3pt&quot;&gt;&lt;pre style=&quot;color: rgb(169 , 183 , 198) ; font-family: &amp;#34;menlo&amp;#34; ; font-size: 11.3pt&quot;&gt;&lt;span style=&quot;color: #b5b6e3&quot;&gt;audiobase&lt;/span&gt;::&lt;span style=&quot;color: #b5b6e3&quot;&gt;AudioReverb2混响处理器初始化&lt;/span&gt;&lt;/pre&gt;&lt;/pre&gt;" style="rhombus;whiteSpace=wrap;html=1;strokeColor=#000000;" vertex="1" parent="1">
          <mxGeometry x="225" y="1680" width="80" height="80" as="geometry" />
        </mxCell>
        <mxCell id="kTf5K5V3wtwHn-U12bBU-31" value="" style="edgeStyle=orthogonalEdgeStyle;rounded=0;orthogonalLoop=1;jettySize=auto;html=1;strokeColor=#000000;" edge="1" parent="1" source="kTf5K5V3wtwHn-U12bBU-32" target="kTf5K5V3wtwHn-U12bBU-34">
          <mxGeometry relative="1" as="geometry" />
        </mxCell>
        <mxCell id="kTf5K5V3wtwHn-U12bBU-32" value="&lt;pre style=&quot;background-color: #2b2b2b ; color: #a9b7c6 ; font-family: &amp;#34;menlo&amp;#34; ; font-size: 11.3pt&quot;&gt;&lt;span style=&quot;color: #b5b6e3&quot;&gt;audiobase&lt;/span&gt;::&lt;span style=&quot;color: #b5b6e3&quot;&gt;AudioBuffer,人声buffer、伴奏buffer对象初始化&lt;/span&gt;&lt;/pre&gt;" style="rhombus;whiteSpace=wrap;html=1;strokeColor=#000000;" vertex="1" parent="1">
          <mxGeometry x="225" y="1840" width="80" height="80" as="geometry" />
        </mxCell>
        <mxCell id="kTf5K5V3wtwHn-U12bBU-33" value="" style="edgeStyle=orthogonalEdgeStyle;rounded=0;orthogonalLoop=1;jettySize=auto;html=1;strokeColor=#000000;" edge="1" parent="1" source="kTf5K5V3wtwHn-U12bBU-34" target="kTf5K5V3wtwHn-U12bBU-36">
          <mxGeometry relative="1" as="geometry" />
        </mxCell>
        <mxCell id="kTf5K5V3wtwHn-U12bBU-34" value="&lt;pre style=&quot;background-color: #2b2b2b ; color: #a9b7c6 ; font-family: &amp;#34;menlo&amp;#34; ; font-size: 11.3pt&quot;&gt;&lt;span style=&quot;color: #b5b6e3&quot;&gt;audiobase&lt;/span&gt;::&lt;span style=&quot;color: #b5b6e3&quot;&gt;AudioBiquadEqualizer新的均衡器初始化&lt;/span&gt;&lt;/pre&gt;" style="rhombus;whiteSpace=wrap;html=1;strokeColor=#000000;" vertex="1" parent="1">
          <mxGeometry x="225" y="2000" width="80" height="80" as="geometry" />
        </mxCell>
        <mxCell id="kTf5K5V3wtwHn-U12bBU-35" value="" style="edgeStyle=orthogonalEdgeStyle;rounded=0;orthogonalLoop=1;jettySize=auto;html=1;strokeColor=#000000;" edge="1" parent="1" source="kTf5K5V3wtwHn-U12bBU-36" target="kTf5K5V3wtwHn-U12bBU-38">
          <mxGeometry relative="1" as="geometry" />
        </mxCell>
        <mxCell id="kTf5K5V3wtwHn-U12bBU-36" value="&lt;pre style=&quot;background-color: rgb(43 , 43 , 43) ; font-family: &amp;#34;menlo&amp;#34; ; font-size: 11.3pt&quot;&gt;&lt;pre style=&quot;color: rgb(169 , 183 , 198) ; font-family: &amp;#34;menlo&amp;#34; ; font-size: 11.3pt&quot;&gt;&lt;span style=&quot;color: #b5b6e3&quot;&gt;audiobase&lt;/span&gt;::&lt;span style=&quot;color: #b5b6e3&quot;&gt;AudioEffectCompand新压线初始化&lt;/span&gt;&lt;/pre&gt;&lt;/pre&gt;" style="rhombus;whiteSpace=wrap;html=1;strokeColor=#000000;" vertex="1" parent="1">
          <mxGeometry x="225" y="2160" width="81" height="80" as="geometry" />
        </mxCell>
        <mxCell id="kTf5K5V3wtwHn-U12bBU-37" value="" style="edgeStyle=orthogonalEdgeStyle;rounded=0;orthogonalLoop=1;jettySize=auto;html=1;strokeColor=#000000;" edge="1" parent="1" source="kTf5K5V3wtwHn-U12bBU-38" target="kTf5K5V3wtwHn-U12bBU-40">
          <mxGeometry relative="1" as="geometry" />
        </mxCell>
        <mxCell id="kTf5K5V3wtwHn-U12bBU-38" value="&lt;pre style=&quot;background-color: rgb(43 , 43 , 43) ; font-family: &amp;#34;menlo&amp;#34; ; font-size: 11.3pt&quot;&gt;&lt;pre style=&quot;color: rgb(169 , 183 , 198) ; font-family: &amp;#34;menlo&amp;#34; ; font-size: 11.3pt&quot;&gt;&lt;span style=&quot;color: #b5b6e3&quot;&gt;audiobase&lt;/span&gt;::&lt;span style=&quot;color: #b5b6e3&quot;&gt;AudioEffectConfig动态参数链条配置初始化&lt;/span&gt;&lt;/pre&gt;&lt;/pre&gt;" style="rhombus;whiteSpace=wrap;html=1;strokeColor=#000000;" vertex="1" parent="1">
          <mxGeometry x="225.5" y="2320" width="82" height="80" as="geometry" />
        </mxCell>
        <mxCell id="kTf5K5V3wtwHn-U12bBU-39" value="" style="edgeStyle=orthogonalEdgeStyle;rounded=0;orthogonalLoop=1;jettySize=auto;html=1;strokeColor=#000000;" edge="1" parent="1" source="kTf5K5V3wtwHn-U12bBU-40" target="kTf5K5V3wtwHn-U12bBU-42">
          <mxGeometry relative="1" as="geometry" />
        </mxCell>
        <mxCell id="kTf5K5V3wtwHn-U12bBU-40" value="&lt;pre style=&quot;background-color: #2b2b2b ; color: #a9b7c6 ; font-family: &amp;#34;menlo&amp;#34; ; font-size: 11.3pt&quot;&gt;&lt;span style=&quot;color: #b5b6e3&quot;&gt;audiobase&lt;/span&gt;::&lt;span style=&quot;color: #b5b6e3&quot;&gt;AudioVipProcessor【VIP音效的&lt;/span&gt;人声前置处理(EQ、压缩等)、人声后置处理（混响）、伴奏处理（伴奏EQ）】&lt;/pre&gt;" style="rhombus;whiteSpace=wrap;html=1;strokeColor=#000000;" vertex="1" parent="1">
          <mxGeometry x="226.5" y="2480" width="80" height="80" as="geometry" />
        </mxCell>
        <mxCell id="kTf5K5V3wtwHn-U12bBU-41" value="" style="edgeStyle=orthogonalEdgeStyle;rounded=0;orthogonalLoop=1;jettySize=auto;html=1;strokeColor=#000000;" edge="1" parent="1" source="kTf5K5V3wtwHn-U12bBU-42" target="kTf5K5V3wtwHn-U12bBU-43">
          <mxGeometry relative="1" as="geometry" />
        </mxCell>
        <mxCell id="kTf5K5V3wtwHn-U12bBU-42" value="&lt;pre style=&quot;background-color: rgb(43 , 43 , 43) ; font-family: &amp;#34;menlo&amp;#34; ; font-size: 11.3pt&quot;&gt;&lt;pre style=&quot;color: rgb(169 , 183 , 198) ; font-family: &amp;#34;menlo&amp;#34; ; font-size: 11.3pt&quot;&gt;&lt;span style=&quot;color: #b5b6e3&quot;&gt;audiobase&lt;/span&gt;::&lt;span style=&quot;color: #b5b6e3&quot;&gt;AudioReverbGain混响增益处理器初始化&lt;/span&gt;&lt;/pre&gt;&lt;/pre&gt;" style="rhombus;whiteSpace=wrap;html=1;strokeColor=#000000;" vertex="1" parent="1">
          <mxGeometry x="226.5" y="2640" width="81" height="80" as="geometry" />
        </mxCell>
        <mxCell id="kTf5K5V3wtwHn-U12bBU-43" value="&lt;pre style=&quot;background-color: #2b2b2b ; color: #a9b7c6 ; font-family: &amp;#34;menlo&amp;#34; ; font-size: 11.3pt&quot;&gt;audiobase&lt;span style=&quot;font-family: &amp;#34;menlo&amp;#34; ; font-size: 11.3pt&quot;&gt;::&lt;/span&gt;&lt;span style=&quot;font-family: &amp;#34;menlo&amp;#34; ; font-size: 11.3pt ; color: rgb(181 , 182 , 227)&quot;&gt;AudioAutoGain自动增益（&lt;/span&gt;声伴比）处理器初始化&lt;/pre&gt;" style="rhombus;whiteSpace=wrap;html=1;strokeColor=#000000;" vertex="1" parent="1">
          <mxGeometry x="226" y="2800" width="81" height="80" as="geometry" />
        </mxCell>
        <mxCell id="kTf5K5V3wtwHn-U12bBU-44" style="edgeStyle=orthogonalEdgeStyle;rounded=0;orthogonalLoop=1;jettySize=auto;html=1;exitX=1;exitY=0.5;exitDx=0;exitDy=0;entryX=0.938;entryY=0.625;entryDx=0;entryDy=0;entryPerimeter=0;strokeColor=#000000;" edge="1" parent="1" source="kTf5K5V3wtwHn-U12bBU-20" target="kTf5K5V3wtwHn-U12bBU-20">
          <mxGeometry relative="1" as="geometry" />
        </mxCell>
      </root>
    </mxGraphModel>
  </diagram>
</mxfile>
